<svg width="48" height="33" viewBox="0 0 48 33" fill="none" xmlns="http://www.w3.org/2000/svg">
<path d="M24.0425 29.7801C24.0425 31.2502 22.8507 32.442 21.3806 32.442H2.74691C1.27676 32.442 0.0849609 31.2502 0.0849609 29.7801C0.0849609 28.3099 1.27676 27.1181 2.74691 27.1181H21.3806C22.8507 27.1181 24.0425 28.3099 24.0425 29.7801ZM48.0001 16.4703C48.0001 17.9405 46.8083 19.1323 45.3382 19.1323H2.74691C1.27676 19.1323 0.0849609 17.9405 0.0849609 16.4703C0.0849609 15.0002 1.27676 13.8084 2.74691 13.8084H45.3382C46.8083 13.8084 48.0001 15.0002 48.0001 16.4703ZM48.0001 3.16055C48.0001 4.6307 46.8083 5.8225 45.3382 5.8225H26.7045C25.2343 5.8225 24.0425 4.6307 24.0425 3.16055C24.0425 1.69039 25.2343 0.498596 26.7045 0.498596H45.3382C46.8083 0.498596 48.0001 1.69039 48.0001 3.16055Z" fill="white"/>
</svg>
